<svg width="20" height="20" viewBox="0 0 20 20" fill="none" xmlns="http://www.w3.org/2000/svg">
<g clip-path="url(#clip0_28_1139)">
<path d="M15.7734 1.34373C16.2422 1.14841 16.7773 1.25779 17.1367 1.61326L19.6367 4.11326C19.8711 4.34763 20.0039 4.66404 20.0039 4.99607C20.0039 5.3281 19.8711 5.64451 19.6367 5.87888L17.1367 8.37888C16.7773 8.73826 16.2422 8.84373 15.7734 8.64841C15.3047 8.4531 15 7.99998 15 7.49216V6.24998H13.75C13.3555 6.24998 12.9844 6.43357 12.75 6.74998L11.0938 8.95701L9.53125 6.87498L10.75 5.24998C11.457 4.30466 12.5703 3.74998 13.75 3.74998H15V2.49998C15 1.99607 15.3047 1.53904 15.7734 1.34373ZM6.40625 11.0429L7.96875 13.125L6.75 14.75C6.04297 15.6953 4.92969 16.25 3.75 16.25H1.25C0.558594 16.25 0 15.6914 0 15C0 14.3086 0.558594 13.75 1.25 13.75H3.75C4.14453 13.75 4.51562 13.5664 4.75 13.25L6.40625 11.0429ZM17.1328 18.3867C16.7734 18.7461 16.2383 18.8515 15.7695 18.6562C15.3008 18.4609 14.9961 18.0078 14.9961 17.5V16.25H13.75C12.5703 16.25 11.457 15.6953 10.75 14.75L4.75 6.74998C4.51562 6.43357 4.14453 6.24998 3.75 6.24998H1.25C0.558594 6.24998 0 5.69138 0 4.99998C0 4.30857 0.558594 3.74998 1.25 3.74998H3.75C4.92969 3.74998 6.04297 4.30466 6.75 5.24998L12.75 13.25C12.9844 13.5664 13.3555 13.75 13.75 13.75H15V12.5C15 11.9961 15.3047 11.539 15.7734 11.3437C16.2422 11.1484 16.7773 11.2578 17.1367 11.6133L19.6367 14.1133C19.8711 14.3476 20.0039 14.664 20.0039 14.9961C20.0039 15.3281 19.8711 15.6445 19.6367 15.8789L17.1367 18.3789L17.1328 18.3867Z" fill="#375B28"/>
</g>
<defs>
<clipPath id="clip0_28_1139">
<path d="M0 0H20V20H0V0Z" fill="white"/>
</clipPath>
</defs>
</svg>
