<svg width="18" height="16" viewBox="0 0 18 16" fill="none" xmlns="http://www.w3.org/2000/svg">
<g clip-path="url(#clip0_28_1087)">
<path d="M12 5C11.4469 5 11 4.55313 11 4C11 3.44687 11.4469 3 12 3H17C17.5532 3 18 3.44687 18 4V9C18 9.55312 17.5532 10 17 10C16.4469 10 16 9.55312 16 9V6.41563L10.7063 11.7063C10.3156 12.0969 9.68127 12.0969 9.29065 11.7063L6.00002 8.41562L1.70627 12.7063C1.31565 13.0969 0.681274 13.0969 0.290649 12.7063C-0.0999756 12.3156 -0.0999756 11.6812 0.290649 11.2906L5.29065 6.29063C5.68127 5.9 6.31565 5.9 6.70627 6.29063L10 9.58438L14.5844 5H12Z" fill="#C19E00"/>
</g>
<defs>
<clipPath id="clip0_28_1087">
<path d="M0 0H18V16H0V0Z" fill="white"/>
</clipPath>
</defs>
</svg>
