<svg width="18" height="16" viewBox="0 0 18 16" fill="none" xmlns="http://www.w3.org/2000/svg">
<path d="M18 16H0V0H18V16Z" stroke="#E5E7EB"/>
<path d="M0 2.5C0 1.67188 0.671875 1 1.5 1H4.5C5.32812 1 6 1.67188 6 2.5V3H12V2.5C12 1.67188 12.6719 1 13.5 1H16.5C17.3281 1 18 1.67188 18 2.5V5.5C18 6.32812 17.3281 7 16.5 7H13.5C12.6719 7 12 6.32812 12 5.5V5H6V5.5C6 5.55312 5.99687 5.60625 5.99062 5.65625L8.5 9H11.5C12.3281 9 13 9.67188 13 10.5V13.5C13 14.3281 12.3281 15 11.5 15H8.5C7.67188 15 7 14.3281 7 13.5V10.5C7 10.4469 7.00313 10.3938 7.00938 10.3438L4.5 7H1.5C0.671875 7 0 6.32812 0 5.5V2.5Z" fill="#375B28"/>
</svg>
