<svg width="23" height="20" viewBox="0 0 23 20" fill="none" xmlns="http://www.w3.org/2000/svg">
<g clip-path="url(#clip0_28_1129)">
<path d="M2.5 2.5C1.12109 2.5 0 3.62109 0 5V5.28906C0 5.55469 0.171875 5.78125 0.394531 5.92578C0.910156 6.26172 1.25 6.83984 1.25 7.5C1.25 8.16016 0.910156 8.73828 0.394531 9.07422C0.171875 9.21875 0 9.44531 0 9.71094V12.5H22.5V9.71094C22.5 9.44531 22.3281 9.21875 22.1055 9.07422C21.5898 8.73828 21.25 8.16016 21.25 7.5C21.25 6.83984 21.5898 6.26172 22.1055 5.92578C22.3281 5.78125 22.5 5.55469 22.5 5.28906V5C22.5 3.62109 21.3789 2.5 20 2.5H2.5ZM22.5 13.75H0V16.25C0 16.9414 0.558594 17.5 1.25 17.5H3.125V16.25C3.125 15.9062 3.40625 15.625 3.75 15.625C4.09375 15.625 4.375 15.9062 4.375 16.25V17.5H8.125V16.25C8.125 15.9062 8.40625 15.625 8.75 15.625C9.09375 15.625 9.375 15.9062 9.375 16.25V17.5H13.125V16.25C13.125 15.9062 13.4062 15.625 13.75 15.625C14.0938 15.625 14.375 15.9062 14.375 16.25V17.5H18.125V16.25C18.125 15.9062 18.4062 15.625 18.75 15.625C19.0938 15.625 19.375 15.9062 19.375 16.25V17.5H21.25C21.9414 17.5 22.5 16.9414 22.5 16.25V13.75ZM7.5 6.25V8.75C7.5 9.44141 6.94141 10 6.25 10C5.55859 10 5 9.44141 5 8.75V6.25C5 5.55859 5.55859 5 6.25 5C6.94141 5 7.5 5.55859 7.5 6.25ZM12.5 6.25V8.75C12.5 9.44141 11.9414 10 11.25 10C10.5586 10 10 9.44141 10 8.75V6.25C10 5.55859 10.5586 5 11.25 5C11.9414 5 12.5 5.55859 12.5 6.25ZM17.5 6.25V8.75C17.5 9.44141 16.9414 10 16.25 10C15.5586 10 15 9.44141 15 8.75V6.25C15 5.55859 15.5586 5 16.25 5C16.9414 5 17.5 5.55859 17.5 6.25Z" fill="#375B28"/>
</g>
<defs>
<clipPath id="clip0_28_1129">
<path d="M0 0H22.5V20H0V0Z" fill="white"/>
</clipPath>
</defs>
</svg>
