<svg width="16" height="14" viewBox="0 0 16 14" fill="none" xmlns="http://www.w3.org/2000/svg">
<g clip-path="url(#clip0_28_1051)">
<path d="M7.875 2.1875C6.09219 2.1875 4.62657 2.99688 3.50274 4.03867C2.45 5.01758 1.72266 6.17969 1.35078 7C1.72266 7.82031 2.45 8.98242 3.5 9.96133C4.62657 11.0031 6.09219 11.8125 7.875 11.8125C9.65782 11.8125 11.1234 11.0031 12.2473 9.96133C13.3 8.98242 14.0273 7.82031 14.3992 7C14.0273 6.17969 13.3 5.01758 12.25 4.03867C11.1234 2.99688 9.65782 2.1875 7.875 2.1875ZM2.6086 3.07891C3.89649 1.88125 5.66563 0.875 7.875 0.875C10.0844 0.875 11.8535 1.88125 13.1414 3.07891C14.4211 4.26836 15.277 5.6875 15.6844 6.66367C15.7746 6.87969 15.7746 7.12031 15.6844 7.33633C15.277 8.3125 14.4211 9.73438 13.1414 10.9211C11.8535 12.1187 10.0844 13.125 7.875 13.125C5.66563 13.125 3.89649 12.1187 2.6086 10.9211C1.32891 9.73438 0.47305 8.3125 0.0683624 7.33633C-0.021872 7.12031 -0.021872 6.87969 0.0683624 6.66367C0.47305 5.6875 1.32891 4.26562 2.6086 3.07891ZM7.875 9.1875C9.0836 9.1875 10.0625 8.20859 10.0625 7C10.0625 5.79141 9.0836 4.8125 7.875 4.8125C7.85586 4.8125 7.83946 4.8125 7.82032 4.8125C7.85586 4.95195 7.875 5.09961 7.875 5.25C7.875 6.21523 7.09024 7 6.125 7C5.97461 7 5.82696 6.98086 5.6875 6.94531C5.6875 6.96445 5.6875 6.98086 5.6875 7C5.6875 8.20859 6.66641 9.1875 7.875 9.1875ZM7.875 3.5C8.80326 3.5 9.6935 3.86875 10.3499 4.52513C11.0063 5.1815 11.375 6.07174 11.375 7C11.375 7.92826 11.0063 8.8185 10.3499 9.47487C9.6935 10.1313 8.80326 10.5 7.875 10.5C6.94675 10.5 6.05651 10.1313 5.40013 9.47487C4.74375 8.8185 4.375 7.92826 4.375 7C4.375 6.07174 4.74375 5.1815 5.40013 4.52513C6.05651 3.86875 6.94675 3.5 7.875 3.5Z" fill="#375B28"/>
</g>
<defs>
<clipPath id="clip0_28_1051">
<path d="M0 0H15.75V14H0V0Z" fill="white"/>
</clipPath>
</defs>
</svg>
